<svg xmlns="http://www.w3.org/2000/svg" viewBox="0 0 64 64" fill="none" role="img" aria-label="Siempre Contigo">
  <!-- Isotipo: c�rculo (acompa�amiento) + escudo/burbuja + persona + chispa IA -->
  <circle cx="32" cy="32" r="28" stroke="#2563EB" stroke-width="2.75" stroke-linecap="round"/>
  <path d="M32 13.5c8.2 0 14.5 5.4 14.5 12.2 0 4.8-2.8 9-7 11.2L32 44.5l-7.5-7.6c-4.2-2.2-7-6.4-7-11.2 0-6.8 6.3-12.2 14.5-12.2z" fill="#2563EB" fill-opacity="0.1" stroke="#2563EB" stroke-width="2.25" stroke-linejoin="round"/>
  <path d="M32 40.5c-1.2 0-2.2 1-2.2 2.2v2.2c0 .6.5 1.1 1.1 1.1h2.2c.6 0 1.1-.5 1.1-1.1v-2.2c0-1.2-1-2.2-2.2-2.2z" fill="#2563EB"/>
  <circle cx="32" cy="24.5" r="5.25" fill="#2563EB"/>
  <circle cx="32" cy="24.5" r="2.25" fill="#FFFFFF"/>
  <path d="M44.5 17.5l1.1 2.2 2.2 1.1-2.2 1.1-1.1 2.2-1.1-2.2-2.2-1.1 2.2-1.1z" fill="#38BDF8"/>
</svg>
