<svg xmlns="http://www.w3.org/2000/svg" viewBox="0 0 1200 800" fill="none">
  <defs>
    <radialGradient id="studio" cx="50%" cy="42%" r="65%">
      <stop offset="0%" stop-color="#FFFFFF"/>
      <stop offset="55%" stop-color="#F8FAFC"/>
      <stop offset="100%" stop-color="#E2E8F0"/>
    </radialGradient>
    <filter id="shadow" x="-20%" y="-20%" width="140%" height="140%">
      <feDropShadow dx="0" dy="24" stdDeviation="28" flood-color="#2563EB" flood-opacity="0.12"/>
      <feDropShadow dx="0" dy="8" stdDeviation="12" flood-color="#0F172A" flood-opacity="0.06"/>
    </filter>
  </defs>
  <rect width="1200" height="800" fill="url(#studio)"/>
  <rect x="80" y="80" width="1040" height="640" rx="32" fill="#FFFFFF" stroke="#E2E8F0" stroke-width="1"/>
  <text x="600" y="160" text-anchor="middle" font-family="Inter, system-ui, sans-serif" font-size="14" font-weight="600" letter-spacing="0.2em" fill="#64748B">SIEMPRE CONTIGO � BRAND MARK</text>
  <g transform="translate(600 380)" filter="url(#shadow)">
    <g transform="translate(-80 -80) scale(2.5)">
      <path
        d="M20.5 35.5c0-11 5-19.5 11.5-20S43.5 24.5 43.5 35.5c0 8.5-5 14.5-11.5 15.5S20.5 44 20.5 35.5z"
        stroke="#38BDF8"
        stroke-width="2.65"
        stroke-linecap="round"
        fill="none"/>
      <circle cx="32" cy="14" r="3.75" fill="#38BDF8"/>
      <path
        d="M22 44.5c3.8 4.8 15.2 4.8 19 0 4.2 2.2 10.8 1.8 15-1.2-5.2 3.5-12.2 3.8-18.5.2-3.8-1.8-6.2-4.5-7-7.5"
        stroke="#2563EB"
        stroke-width="2.5"
        stroke-linecap="round"
        stroke-linejoin="round"
        fill="none"/>
      <path
        d="M25 27.5h18a4.5 4.5 0 0 1 4.5 4.5v5a4.5 4.5 0 0 1-4.5 4.5H30l-3.5 4.2V41.5H25a4.5 4.5 0 0 1-4.5-4.5v-5a4.5 4.5 0 0 1 4.5-4.5z"
        fill="#2563EB"/>
      <circle cx="28.5" cy="33" r="1.65" fill="#FFFFFF"/>
      <circle cx="32" cy="33" r="1.65" fill="#FFFFFF"/>
      <circle cx="35.5" cy="33" r="1.65" fill="#FFFFFF"/>
    </g>
  </g>
  <text x="600" y="548" text-anchor="middle" font-family="Inter, system-ui, sans-serif" font-size="36" font-weight="700" letter-spacing="-0.04em">
    <tspan fill="#0F172A">Siempre </tspan><tspan fill="#2563EB">Contigo</tspan>
  </text>
  <text x="600" y="586" text-anchor="middle" font-family="Inter, system-ui, sans-serif" font-size="16" fill="#64748B">Tu compa�ero digital, siempre a tu lado</text>
  <text x="600" y="618" text-anchor="middle" font-family="Inter, system-ui, sans-serif" font-size="14" fill="#94A3B8">Abrazo � Conversaci�n � Cuidado � Confianza</text>
  <g transform="translate(120 650)">
    <rect width="140" height="48" rx="12" fill="#EFF6FF" stroke="#BFDBFE"/>
    <text x="70" y="30" text-anchor="middle" font-family="Inter, system-ui, sans-serif" font-size="13" font-weight="600" fill="#2563EB">#2563EB</text>
  </g>
  <g transform="translate(280 650)">
    <rect width="140" height="48" rx="12" fill="#F8FAFC" stroke="#E2E8F0"/>
    <text x="70" y="30" text-anchor="middle" font-family="Inter, system-ui, sans-serif" font-size="13" font-weight="600" fill="#64748B">#F8FAFC</text>
  </g>
  <g transform="translate(440 650)">
    <rect width="140" height="48" rx="12" fill="#FFFFFF" stroke="#E2E8F0"/>
    <text x="70" y="30" text-anchor="middle" font-family="Inter, system-ui, sans-serif" font-size="13" font-weight="600" fill="#0F172A">#FFFFFF</text>
  </g>
  <g transform="translate(600 650)">
    <rect width="140" height="48" rx="12" fill="#38BDF8" fill-opacity="0.25" stroke="#7DD3FC"/>
    <text x="70" y="30" text-anchor="middle" font-family="Inter, system-ui, sans-serif" font-size="13" font-weight="600" fill="#0284C7">#38BDF8</text>
  </g>
</svg>
